<svg width="400" height="800" viewBox="0 0 400 800" fill="none" xmlns="http://www.w3.org/2000/svg">
  <!-- Phone Frame -->
  <rect x="25" y="10" width="350" height="780" rx="40" fill="#1A1A1A" stroke="#333" stroke-width="4"/>
  <rect x="35" y="20" width="330" height="760" rx="32" fill="#0B141A"/>
  
  <!-- Notch -->
  <rect x="150" y="20" width="100" height="30" rx="15" fill="#1A1A1A"/>
  
  <!-- WhatsApp Header -->
  <rect x="35" y="50" width="330" height="60" fill="#202C33"/>
  <circle cx="70" cy="80" r="18" fill="#6A737D"/>
  <text x="100" y="85" fill="white" style="font-family: Arial; font-size: 14px; font-weight: bold;">🤖 DSD Bot</text>
  
  <!-- Chat Messages Area -->
  <g transform="translate(50, 130)">
    <!-- User Message -->
    <path d="M120 0H280C287 0 293 6 293 13V40C293 47 287 53 280 53H120C113 53 107 47 107 40V13C107 6 113 0 120 0Z" fill="#005C4B"/>
    <text x="120" y="30" fill="white" style="font-family: Arial; font-size: 12px;">chegada</text>
    <text x="270" y="45" fill="white" opacity="0.6" style="font-family: Arial; font-size: 9px;">14:30</text>
    
    <!-- Bot Response Ticket CHEGADA -->
    <g transform="translate(0, 70)">
      <!-- Ticket Bubble -->
      <path d="M10 0H280C287 0 293 6 293 13V420C293 427 287 433 280 433H10C3 433 -3 427 -3 420V13C-3 6 3 0 10 0Z" fill="#202C33"/>
      
      <!-- Ticket Content -->
      <g transform="translate(15, 20)">
        <text x="0" y="0" fill="#25D366" style="font-family: Courier New; font-weight: bold; font-size: 12px;">━━━━━━━━━━━━━━━━━━━━</text>
        <text x="0" y="25" fill="#25D366" style="font-family: Arial; font-weight: bold; font-size: 14px;">🏁 TICKET DE CHEGADA</text>
        <text x="0" y="45" fill="#25D366" style="font-family: Courier New; font-weight: bold; font-size: 12px;">━━━━━━━━━━━━━━━━━━━━</text>
        
        <text x="0" y="75" fill="white" style="font-family: Arial; font-size: 12px;">🚗 Placa: <tspan font-weight="bold">GIO-9717</tspan></text>
        <text x="0" y="95" fill="white" style="font-family: Arial; font-size: 12px;">🚚 Modelo: <tspan font-weight="bold">Truck</tspan></text>
        <text x="0" y="115" fill="white" style="font-family: Arial; font-size: 12px;">📅 Data: <tspan font-weight="bold">29/04/2026</tspan></text>
        <text x="0" y="135" fill="white" style="font-family: Arial; font-size: 12px;">🔢 Saída Nº: <tspan font-weight="bold">1</tspan></text>
        <text x="0" y="155" fill="white" style="font-family: Arial; font-size: 12px;">👤 Responsável: <tspan font-weight="bold">Carlos</tspan></text>
        <text x="0" y="175" fill="white" style="font-family: Arial; font-size: 12px;">👥 Equipe: <tspan font-weight="bold">Ronaldo, Diogo</tspan></text>
        
        <text x="0" y="205" fill="white" style="font-family: Arial; font-size: 12px;">🛣️ KM Final: <tspan font-weight="bold">125.450</tspan></text>
        <text x="0" y="225" fill="#00A884" style="font-family: Arial; font-weight: bold; font-size: 14px;">🕐 Chegada: <tspan font-weight="bold">14:30</tspan> <tspan fill="#00A884" font-size="10px;">(automático)</tspan></text>
        
        <text x="0" y="255" fill="white" style="font-family: Arial; font-size: 12px;">📍 Local: <tspan font-weight="bold">São Paulo</tspan></text>
        
        <text x="0" y="285" fill="#25D366" style="font-family: Courier New; font-weight: bold; font-size: 12px;">━━━━━━━━━━━━━━━━━━━━</text>
        <text x="0" y="310" fill="#25D366" style="font-family: Arial; font-weight: bold; font-size: 12px;">✅ Viagem registrada com sucesso!</text>
      </g>
      
      <text x="275" y="420" fill="white" opacity="0.6" style="font-family: Arial; font-size: 9px;">14:30</text>
    </g>
  </g>
  
  <!-- WhatsApp Bottom Input -->
  <rect x="35" y="720" width="330" height="60" fill="#0B141A"/>
  <rect x="45" y="730" width="260" height="40" rx="20" fill="#202C33"/>
  <circle cx="335" cy="750" r="20" fill="#00A884"/>
</svg>